<svg width="259" height="39" viewBox="0 0 259 39" fill="none" xmlns="http://www.w3.org/2000/svg">
<path d="M15.2332 30.709C10.9514 30.709 7.39228 29.2908 4.55591 26.4544C1.74682 23.5908 0.342278 20.0453 0.342278 15.818C0.342278 11.5908 1.74682 8.05896 4.55591 5.22259C7.39228 2.35896 10.9514 0.927137 15.2332 0.927137C17.7968 0.927137 20.1696 1.52714 22.3514 2.72714C24.5332 3.89987 26.2514 5.50896 27.5059 7.55441L21.8605 10.8271C21.2332 9.70896 20.3332 8.84987 19.1605 8.24987C17.9877 7.62259 16.6786 7.30896 15.2332 7.30896C12.6968 7.30896 10.665 8.08623 9.13773 9.64077C7.63773 11.1953 6.88773 13.2544 6.88773 15.818C6.88773 18.3817 7.63773 20.4408 9.13773 21.9953C10.665 23.5499 12.6968 24.3271 15.2332 24.3271C16.6786 24.3271 17.9877 24.0135 19.1605 23.3862C20.3605 22.759 21.2605 21.8999 21.8605 20.809L27.5059 24.0817C26.2786 26.1271 24.5741 27.7499 22.3923 28.9499C20.2105 30.1226 17.8241 30.709 15.2332 30.709ZM45.4187 9.68168H51.555V30.1362H45.4187V28.2135C43.9732 29.8771 41.9414 30.709 39.3232 30.709C36.6232 30.709 34.3187 29.6726 32.4096 27.5999C30.5005 25.4999 29.5459 22.9362 29.5459 19.909C29.5459 16.8817 30.5005 14.3317 32.4096 12.259C34.3187 10.159 36.6232 9.10896 39.3232 9.10896C41.9414 9.10896 43.9732 9.94078 45.4187 11.6044V9.68168ZM37.0323 23.5499C37.9323 24.4499 39.105 24.8999 40.5505 24.8999C41.9959 24.8999 43.1687 24.4499 44.0687 23.5499C44.9687 22.6499 45.4187 21.4362 45.4187 19.909C45.4187 18.3817 44.9687 17.168 44.0687 16.268C43.1687 15.368 41.9959 14.918 40.5505 14.918C39.105 14.918 37.9323 15.368 37.0323 16.268C36.1323 17.168 35.6823 18.3817 35.6823 19.909C35.6823 21.4362 36.1323 22.6499 37.0323 23.5499ZM61.6663 15.6544C61.6663 16.0635 62.0072 16.4044 62.689 16.6771C63.3981 16.9226 64.2436 17.1817 65.2254 17.4544C66.2072 17.6999 67.189 18.0271 68.1708 18.4362C69.1526 18.8453 69.9845 19.5271 70.6663 20.4817C71.3754 21.409 71.7299 22.5817 71.7299 23.9999C71.7299 26.209 70.9117 27.8862 69.2754 29.0317C67.639 30.1499 65.6208 30.709 63.2208 30.709C58.9117 30.709 55.9799 29.0862 54.4254 25.8408L59.7436 22.8135C60.289 24.4226 61.4481 25.2271 63.2208 25.2271C64.6936 25.2271 65.4299 24.8044 65.4299 23.959C65.4299 23.5499 65.0754 23.209 64.3663 22.9362C63.6845 22.6635 62.8526 22.4044 61.8708 22.159C60.889 21.8862 59.9072 21.5453 58.9254 21.1362C57.9436 20.6999 57.0981 20.0317 56.389 19.1317C55.7072 18.2317 55.3663 17.1271 55.3663 15.818C55.3663 13.6908 56.1299 12.0408 57.6572 10.868C59.2117 9.69532 61.1208 9.10896 63.3845 9.10896C65.0754 9.10896 66.6163 9.49078 68.0072 10.2544C69.3981 10.9908 70.5163 12.068 71.3617 13.4862L66.1254 16.309C65.4708 15.109 64.5572 14.509 63.3845 14.509C62.239 14.509 61.6663 14.8908 61.6663 15.6544ZM86.1807 15.5726H81.9671V22.8135C81.9671 23.6317 82.2944 24.1499 82.9489 24.368C83.6035 24.5862 84.6807 24.6544 86.1807 24.5726V30.1362C82.2807 30.5453 79.5807 30.1771 78.0807 29.0317C76.5807 27.859 75.8307 25.7862 75.8307 22.8135V15.5726H72.558V9.68168H75.8307V5.79532L81.9671 3.95441V9.68168H86.1807V15.5726ZM95.3006 6.81805C94.5915 7.52714 93.7324 7.88168 92.7233 7.88168C91.7142 7.88168 90.8415 7.52714 90.1051 6.81805C89.396 6.08168 89.0415 5.20896 89.0415 4.19987C89.0415 3.19078 89.396 2.33168 90.1051 1.62259C90.8415 0.886228 91.7142 0.518046 92.7233 0.518046C93.7324 0.518046 94.5915 0.886228 95.3006 1.62259C96.037 2.33168 96.4051 3.19078 96.4051 4.19987C96.4051 5.20896 96.037 6.08168 95.3006 6.81805ZM89.6551 30.1362V9.68168H95.7915V30.1362H89.6551ZM112.268 9.10896C114.45 9.10896 116.264 9.85896 117.709 11.359C119.182 12.859 119.918 14.9317 119.918 17.5771V30.1362H113.782V18.4771C113.782 17.2771 113.441 16.3635 112.759 15.7362C112.105 15.0817 111.259 14.7544 110.223 14.7544C109.05 14.7544 108.123 15.109 107.441 15.818C106.759 16.5271 106.418 17.5771 106.418 18.968V30.1362H100.282V9.68168H106.418V11.6044C107.646 9.94078 109.596 9.10896 112.268 9.10896ZM139.146 9.68168H145.119V29.1135C145.119 32.3317 144.069 34.759 141.969 36.3953C139.869 38.059 137.319 38.8908 134.319 38.8908C129.71 38.8908 126.478 37.2408 124.623 33.9408L129.86 30.9135C130.787 32.6317 132.341 33.4908 134.523 33.4908C135.969 33.4908 137.1 33.109 137.919 32.3453C138.737 31.609 139.146 30.5317 139.146 29.1135V27.2317C137.728 29.0044 135.737 29.8908 133.173 29.8908C130.31 29.8908 127.91 28.8817 125.973 26.8635C124.064 24.818 123.11 22.3635 123.11 19.4999C123.11 16.6362 124.064 14.1953 125.973 12.1771C127.91 10.1317 130.31 9.10896 133.173 9.10896C135.737 9.10896 137.728 9.99532 139.146 11.768V9.68168ZM130.637 22.9362C131.564 23.809 132.75 24.2453 134.196 24.2453C135.641 24.2453 136.828 23.809 137.755 22.9362C138.682 22.0635 139.146 20.918 139.146 19.4999C139.146 18.0817 138.682 16.9362 137.755 16.0635C136.828 15.1908 135.641 14.7544 134.196 14.7544C132.75 14.7544 131.564 15.1908 130.637 16.0635C129.71 16.9362 129.246 18.0817 129.246 19.4999C129.246 20.918 129.71 22.0635 130.637 22.9362ZM168.03 30.1362L166.598 25.6362H155.961L154.53 30.1362H147.371L157.107 1.49986H165.452L175.189 30.1362H168.03ZM157.925 19.4999H164.634L161.28 8.98623L157.925 19.4999ZM188.077 6.81805C185.54 6.59987 184.272 7.55441 184.272 9.68168H188.077V15.5726H184.272V30.1362H178.136V15.5726H175.395V9.68168H178.136C178.136 6.73623 178.968 4.49986 180.631 2.97259C182.295 1.41805 184.777 0.736229 188.077 0.927137V6.81805ZM196.466 13.3226C196.848 12.0135 197.612 11.018 198.757 10.3362C199.93 9.62714 201.212 9.27259 202.603 9.27259V16.2271C201.103 15.9817 199.698 16.2408 198.389 17.0044C197.107 17.7408 196.466 19.0362 196.466 20.8908V30.1362H190.33V9.68168H196.466V13.3226ZM211.116 6.81805C210.407 7.52714 209.548 7.88168 208.539 7.88168C207.53 7.88168 206.657 7.52714 205.921 6.81805C205.212 6.08168 204.857 5.20896 204.857 4.19987C204.857 3.19078 205.212 2.33168 205.921 1.62259C206.657 0.886228 207.53 0.518046 208.539 0.518046C209.548 0.518046 210.407 0.886228 211.116 1.62259C211.853 2.33168 212.221 3.19078 212.221 4.19987C212.221 5.20896 211.853 6.08168 211.116 6.81805ZM205.471 30.1362V9.68168H211.607V30.1362H205.471ZM225.916 30.709C222.807 30.709 220.216 29.6726 218.143 27.5999C216.098 25.5271 215.075 22.9635 215.075 19.909C215.075 16.8544 216.098 14.2908 218.143 12.218C220.216 10.1453 222.807 9.10896 225.916 9.10896C227.88 9.10896 229.68 9.58623 231.316 10.5408C232.98 11.4953 234.261 12.7635 235.161 14.3453L229.802 17.4544C229.066 15.9271 227.743 15.1635 225.834 15.1635C224.498 15.1635 223.393 15.6135 222.521 16.5135C221.648 17.3862 221.211 18.518 221.211 19.909C221.211 21.2999 221.648 22.4453 222.521 23.3453C223.393 24.218 224.498 24.6544 225.834 24.6544C227.771 24.6544 229.093 23.8908 229.802 22.3635L235.161 25.4317C234.261 27.0408 232.993 28.3226 231.357 29.2771C229.721 30.2317 227.907 30.709 225.916 30.709ZM252.081 9.68168H258.218V30.1362H252.081V28.2135C250.636 29.8771 248.604 30.709 245.986 30.709C243.286 30.709 240.981 29.6726 239.072 27.5999C237.163 25.4999 236.209 22.9362 236.209 19.909C236.209 16.8817 237.163 14.3317 239.072 12.259C240.981 10.159 243.286 9.10896 245.986 9.10896C248.604 9.10896 250.636 9.94078 252.081 11.6044V9.68168ZM243.695 23.5499C244.595 24.4499 245.768 24.8999 247.213 24.8999C248.659 24.8999 249.831 24.4499 250.731 23.5499C251.631 22.6499 252.081 21.4362 252.081 19.909C252.081 18.3817 251.631 17.168 250.731 16.268C249.831 15.368 248.659 14.918 247.213 14.918C245.768 14.918 244.595 15.368 243.695 16.268C242.795 17.168 242.345 18.3817 242.345 19.909C242.345 21.4362 242.795 22.6499 243.695 23.5499Z" fill="white"/>
</svg>
