<svg width="34" height="34" viewBox="0 0 34 34" fill="none" xmlns="http://www.w3.org/2000/svg">
<g id="Group">
<path id="Vector" d="M28.3333 5.66663C29.0481 5.6664 29.7366 5.93637 30.2608 6.42241C30.7849 6.90846 31.106 7.57466 31.1596 8.28746L31.1667 8.49996V25.5C31.1669 26.2148 30.8969 26.9033 30.4109 27.4274C29.9248 27.9515 29.2586 28.2726 28.5458 28.3262L28.3333 28.3333H5.66667C4.95185 28.3335 4.26336 28.0635 3.73922 27.5775C3.21508 27.0915 2.89403 26.4253 2.84042 25.7125L2.83333 25.5V24.0833H5.66667V25.5H28.3333V10.5031L18.5017 20.3348C18.1298 20.7066 17.6333 20.9273 17.1081 20.9543C16.5829 20.9812 16.0664 20.8125 15.6584 20.4807L15.4969 20.3348L5.66667 10.5031V11.3333H2.83333V8.49996C2.83311 7.78514 3.10308 7.09666 3.58912 6.57252C4.07517 6.04838 4.74136 5.72732 5.45417 5.67371L5.66667 5.66663H28.3333ZM8.5 18.4166C8.87572 18.4166 9.23606 18.5659 9.50173 18.8316C9.76741 19.0972 9.91667 19.4576 9.91667 19.8333C9.91667 20.209 9.76741 20.5694 9.50173 20.835C9.23606 21.1007 8.87572 21.25 8.5 21.25H1.41667C1.04094 21.25 0.680609 21.1007 0.414932 20.835C0.149256 20.5694 0 20.209 0 19.8333C0 19.4576 0.149256 19.0972 0.414932 18.8316C0.680609 18.5659 1.04094 18.4166 1.41667 18.4166H8.5ZM26.3302 8.49996H7.66983L17 17.8301L26.3302 8.49996ZM7.08333 14.1666C7.44441 14.167 7.79171 14.3053 8.05427 14.5532C8.31683 14.801 8.47483 15.1398 8.49599 15.5003C8.51715 15.8607 8.39988 16.2157 8.16812 16.4926C7.93637 16.7694 7.60764 16.9474 7.24908 16.99L7.08333 17H2.83333C2.47225 16.9996 2.12495 16.8613 1.86239 16.6134C1.59984 16.3656 1.44183 16.0268 1.42067 15.6663C1.39951 15.3059 1.51679 14.9509 1.74854 14.674C1.98029 14.3971 2.30903 14.2192 2.66758 14.1765L2.83333 14.1666H7.08333Z" fill="black"/>
</g>
</svg>
