<svg width="34" height="35" viewBox="0 0 34 35" fill="none" xmlns="http://www.w3.org/2000/svg">
<path fill-rule="evenodd" clip-rule="evenodd" d="M5.66668 17.2731C5.66688 15.0921 6.2964 12.9574 7.47971 11.1253C8.66302 9.2932 10.3498 7.84143 12.3378 6.94421C14.3257 6.047 16.5303 5.74244 18.687 6.0671C20.8438 6.39176 22.861 7.33183 24.4967 8.77452C26.1324 10.2172 27.3171 12.1012 27.9086 14.2005C28.5001 16.2998 28.4733 18.5252 27.8314 20.6096C27.1895 22.694 25.9598 24.549 24.2899 25.9519C22.6199 27.3548 20.5806 28.246 18.4167 28.5186V20.1064H21.25C21.6257 20.1064 21.9861 19.9572 22.2517 19.6915C22.5174 19.4258 22.6667 19.0655 22.6667 18.6898C22.6667 18.3141 22.5174 17.9537 22.2517 17.688C21.9861 17.4224 21.6257 17.2731 21.25 17.2731H18.4167V14.4398C18.4167 14.0641 18.5659 13.7037 18.8316 13.438C19.0973 13.1724 19.4576 13.0231 19.8333 13.0231H20.5417C20.9174 13.0231 21.2777 12.8739 21.5434 12.6082C21.8091 12.3425 21.9583 11.9822 21.9583 11.6064C21.9583 11.2307 21.8091 10.8704 21.5434 10.6047C21.2777 10.339 20.9174 10.1898 20.5417 10.1898H19.8333C18.7062 10.1898 17.6252 10.6375 16.8281 11.4346C16.0311 12.2316 15.5833 13.3126 15.5833 14.4398V17.2731H12.75C12.3743 17.2731 12.014 17.4224 11.7483 17.688C11.4826 17.9537 11.3333 18.3141 11.3333 18.6898C11.3333 19.0655 11.4826 19.4258 11.7483 19.6915C12.014 19.9572 12.3743 20.1064 12.75 20.1064H15.5833V28.5186C12.8445 28.1732 10.3258 26.8402 8.50002 24.7698C6.67419 22.6993 5.66672 20.0336 5.66668 17.2731ZM17 31.4398C24.8243 31.4398 31.1667 25.0974 31.1667 17.2731C31.1667 9.44886 24.8243 3.10645 17 3.10645C9.17576 3.10645 2.83334 9.44886 2.83334 17.2731C2.83334 25.0974 9.17576 31.4398 17 31.4398Z" fill="white"/>
</svg>
