<svg width="34" height="35" viewBox="0 0 34 35" fill="none" xmlns="http://www.w3.org/2000/svg">
<path fill-rule="evenodd" clip-rule="evenodd" d="M22.6667 4.52295C24.5453 4.52295 26.347 5.26923 27.6753 6.59761C29.0037 7.92599 29.75 9.72767 29.75 11.6063V22.9396C29.75 24.8182 29.0037 26.6199 27.6753 27.9483C26.347 29.2767 24.5453 30.0229 22.6667 30.0229H11.3333C9.45472 30.0229 7.65304 29.2767 6.32466 27.9483C4.99628 26.6199 4.25 24.8182 4.25 22.9396V11.6063C4.25 9.72767 4.99628 7.92599 6.32466 6.59761C7.65304 5.26923 9.45472 4.52295 11.3333 4.52295H22.6667ZM22.6667 7.35628H11.3333C10.2062 7.35628 9.12516 7.80405 8.32813 8.60108C7.5311 9.39811 7.08333 10.4791 7.08333 11.6063V22.9396C7.08333 24.0668 7.5311 25.1478 8.32813 25.9448C9.12516 26.7418 10.2062 27.1896 11.3333 27.1896H22.6667C23.7938 27.1896 24.8748 26.7418 25.6719 25.9448C26.4689 25.1478 26.9167 24.0668 26.9167 22.9396V11.6063C26.9167 10.4791 26.4689 9.39811 25.6719 8.60108C24.8748 7.80405 23.7938 7.35628 22.6667 7.35628ZM17 11.6063C18.5029 11.6063 19.9442 12.2033 21.0069 13.266C22.0696 14.3287 22.6667 15.7701 22.6667 17.2729C22.6667 18.7758 22.0696 20.2172 21.0069 21.2799C19.9442 22.3426 18.5029 22.9396 17 22.9396C15.4971 22.9396 14.0558 22.3426 12.9931 21.2799C11.9304 20.2172 11.3333 18.7758 11.3333 17.2729C11.3333 15.7701 11.9304 14.3287 12.9931 13.266C14.0558 12.2033 15.4971 11.6063 17 11.6063ZM17 14.4396C16.2486 14.4396 15.5279 14.7381 14.9965 15.2695C14.4652 15.8008 14.1667 16.5215 14.1667 17.2729C14.1667 18.0244 14.4652 18.7451 14.9965 19.2764C15.5279 19.8078 16.2486 20.1063 17 20.1063C17.7514 20.1063 18.4721 19.8078 19.0035 19.2764C19.5348 18.7451 19.8333 18.0244 19.8333 17.2729C19.8333 16.5215 19.5348 15.8008 19.0035 15.2695C18.4721 14.7381 17.7514 14.4396 17 14.4396ZM23.375 9.48128C23.7507 9.48128 24.1111 9.63054 24.3767 9.89621C24.6424 10.1619 24.7917 10.5222 24.7917 10.8979C24.7917 11.2737 24.6424 11.634 24.3767 11.8997C24.1111 12.1654 23.7507 12.3146 23.375 12.3146C22.9993 12.3146 22.6389 12.1654 22.3733 11.8997C22.1076 11.634 21.9583 11.2737 21.9583 10.8979C21.9583 10.5222 22.1076 10.1619 22.3733 9.89621C22.6389 9.63054 22.9993 9.48128 23.375 9.48128Z" fill="white"/>
</svg>
