<svg width="34" height="35" viewBox="0 0 34 35" fill="none" xmlns="http://www.w3.org/2000/svg">
<path d="M25.5 4.52295C26.6272 4.52295 27.7082 4.97072 28.5052 5.76775C29.3022 6.56477 29.75 7.64578 29.75 8.77295V25.7729C29.75 26.9001 29.3022 27.9811 28.5052 28.7782C27.7082 29.5752 26.6272 30.0229 25.5 30.0229H8.5C7.37283 30.0229 6.29183 29.5752 5.4948 28.7782C4.69777 27.9811 4.25 26.9001 4.25 25.7729V8.77295C4.25 7.64578 4.69777 6.56477 5.4948 5.76775C6.29183 4.97072 7.37283 4.52295 8.5 4.52295H25.5ZM25.5 7.35628H8.5C8.12428 7.35628 7.76394 7.50554 7.49827 7.77121C7.23259 8.03689 7.08333 8.39723 7.08333 8.77295V25.7729C7.08333 26.1487 7.23259 26.509 7.49827 26.7747C7.76394 27.0404 8.12428 27.1896 8.5 27.1896H25.5C25.8757 27.1896 26.2361 27.0404 26.5017 26.7747C26.7674 26.509 26.9167 26.1487 26.9167 25.7729V8.77295C26.9167 8.39723 26.7674 8.03689 26.5017 7.77121C26.2361 7.50554 25.8757 7.35628 25.5 7.35628ZM11.3333 14.4396C11.6803 14.4397 12.0152 14.5671 12.2745 14.7976C12.5338 15.0282 12.6995 15.3459 12.7401 15.6905L12.75 15.8563V22.9396C12.7496 23.3007 12.6113 23.648 12.3635 23.9106C12.1156 24.1731 11.7768 24.3311 11.4164 24.3523C11.0559 24.3734 10.701 24.2562 10.4241 24.0244C10.1472 23.7927 9.96923 23.4639 9.92658 23.1054L9.91667 22.9396V15.8563C9.91667 15.4806 10.0659 15.1202 10.3316 14.8545C10.5973 14.5889 10.9576 14.4396 11.3333 14.4396ZM15.5833 13.0229C15.9151 13.0229 16.2364 13.1393 16.4911 13.3518C16.7459 13.5644 16.9179 13.8596 16.9773 14.186C17.2624 14.0207 17.5571 13.8727 17.8599 13.7426C18.8048 13.3389 20.2201 13.1164 21.4979 13.5174C22.168 13.7299 22.8409 14.1265 23.3396 14.8023C23.7858 15.4044 24.0267 16.1368 24.0748 16.9599L24.0833 17.2729V22.9396C24.0829 23.3007 23.9447 23.648 23.6968 23.9106C23.4489 24.1731 23.1101 24.3311 22.7497 24.3523C22.3892 24.3734 22.0343 24.2562 21.7574 24.0244C21.4805 23.7927 21.3026 23.4639 21.2599 23.1054L21.25 22.9396V17.2729C21.25 16.8054 21.1367 16.5873 21.063 16.4867C20.9573 16.3552 20.8115 16.2617 20.6479 16.2204C20.1549 16.0645 19.4452 16.1467 18.9734 16.3479C18.2651 16.651 17.6163 17.127 17.1742 17.5676L17 17.7546V22.9396C16.9996 23.3007 16.8613 23.648 16.6135 23.9106C16.3656 24.1731 16.0268 24.3311 15.6664 24.3523C15.3059 24.3734 14.951 24.2562 14.6741 24.0244C14.3972 23.7927 14.2192 23.4639 14.1766 23.1054L14.1667 22.9396V14.4396C14.1667 14.0639 14.3159 13.7036 14.5816 13.4379C14.8473 13.1722 15.2076 13.0229 15.5833 13.0229ZM11.3333 10.1896C11.7091 10.1896 12.0694 10.3389 12.3351 10.6045C12.6007 10.8702 12.75 11.2306 12.75 11.6063C12.75 11.982 12.6007 12.3423 12.3351 12.608C12.0694 12.8737 11.7091 13.0229 11.3333 13.0229C10.9576 13.0229 10.5973 12.8737 10.3316 12.608C10.0659 12.3423 9.91667 11.982 9.91667 11.6063C9.91667 11.2306 10.0659 10.8702 10.3316 10.6045C10.5973 10.3389 10.9576 10.1896 11.3333 10.1896Z" fill="white"/>
</svg>
