<svg width="14" height="18" viewBox="0 0 14 18" fill="none" xmlns="http://www.w3.org/2000/svg">
<path id="Vector" fill-rule="evenodd" clip-rule="evenodd" d="M0.4375 7.60747C0.4375 3.9332 3.36626 0.9375 7 0.9375C10.6337 0.9375 13.5625 3.9332 13.5625 7.60747C13.5625 9.3813 13.057 11.2859 12.1633 12.9314C11.2708 14.5748 9.96672 16.0029 8.33538 16.7654C7.48793 17.1615 6.51207 17.1615 5.66462 16.7654C4.03328 16.0029 2.72921 14.5748 1.83667 12.9314C0.943021 11.2859 0.4375 9.3813 0.4375 7.60747ZM7 2.0625C4.00632 2.0625 1.5625 4.53561 1.5625 7.60747C1.5625 9.18027 2.01448 10.9016 2.82528 12.3945C3.63718 13.8894 4.78452 15.1122 6.14098 15.7463C6.68654 16.0012 7.31346 16.0012 7.85902 15.7463C9.21548 15.1122 10.3628 13.8894 11.1747 12.3945C11.9855 10.9016 12.4375 9.18027 12.4375 7.60747C12.4375 4.53561 9.99368 2.0625 7 2.0625ZM7 5.8125C6.06802 5.8125 5.3125 6.56802 5.3125 7.5C5.3125 8.43198 6.06802 9.1875 7 9.1875C7.93198 9.1875 8.6875 8.43198 8.6875 7.5C8.6875 6.56802 7.93198 5.8125 7 5.8125ZM4.1875 7.5C4.1875 5.9467 5.4467 4.6875 7 4.6875C8.5533 4.6875 9.8125 5.9467 9.8125 7.5C9.8125 9.0533 8.5533 10.3125 7 10.3125C5.4467 10.3125 4.1875 9.0533 4.1875 7.5Z" fill="#7D8790"/>
</svg>
