<svg width="34" height="34" viewBox="0 0 34 34" fill="none" xmlns="http://www.w3.org/2000/svg">
<g id="Group">
<path id="Vector" d="M9.71431 3.46375C11.5036 4.7685 12.8579 6.60167 14.0111 8.28608L14.9149 9.61492C15.1956 10.0251 15.324 10.5206 15.2779 11.0155C15.2319 11.5104 15.0143 11.9736 14.6627 12.325L12.7417 14.246L12.9443 14.6767C13.4401 15.6811 14.2958 17.1275 15.5836 18.4167C16.4728 19.2925 17.4752 20.0453 18.5642 20.655L19.0841 20.9341L19.5474 21.1636L19.7542 21.2585L21.6738 19.3375C22.0266 18.9852 22.4919 18.7679 22.9885 18.7237C23.4851 18.6794 23.9814 18.8109 24.391 19.0953L25.8275 20.0912C27.4595 21.2387 29.1637 22.5463 30.4883 24.2434C30.7173 24.5379 30.8629 24.8886 30.91 25.2587C30.9571 25.6287 30.904 26.0047 30.7561 26.3472C29.5703 29.1139 26.5698 31.4698 23.4489 31.3537L23.0239 31.331L22.6938 31.3027L22.3283 31.2602L21.9302 31.2063L21.4981 31.1341L21.0363 31.0434L20.5461 30.9343L20.0276 30.8012L19.4822 30.6453L18.9127 30.4612C16.2976 29.5743 12.9783 27.8318 9.57264 24.4262C6.16839 21.0219 4.42589 17.7027 3.53906 15.0875L3.35489 14.518L3.19906 13.9726L3.06589 13.4541L2.95539 12.9639C2.92348 12.8104 2.89372 12.6564 2.86614 12.5021L2.79531 12.07L2.73864 11.6719L2.69756 11.3064L2.66923 10.9763L2.64656 10.5513C2.53181 7.44033 4.91323 4.41858 7.66723 3.2385C7.99869 3.09537 8.36168 3.04088 8.72056 3.08037C9.07944 3.11986 9.4219 3.25197 9.71431 3.46375ZM8.40106 6.02508C6.88239 6.81842 5.41189 8.63175 5.47848 10.4465L5.50681 10.9112L5.53798 11.2016L5.57906 11.5274L5.63573 11.8858L5.70798 12.2783L5.80006 12.7004L5.91339 13.1538L6.04939 13.634L6.21089 14.1412C6.27039 14.314 6.33273 14.4911 6.40073 14.6724L6.61889 15.2277L6.86823 15.8043C7.75789 17.7622 9.20856 20.0543 11.5786 22.423C13.9473 24.7917 16.2395 26.2438 18.1973 27.1334L18.7739 27.3828L19.3292 27.6009C19.5106 27.6689 19.6876 27.7313 19.8605 27.7908L20.3676 27.9523L20.8493 28.0883L21.3012 28.2016L21.7234 28.2937L22.1158 28.3659L22.4756 28.4226L22.8015 28.4651L23.0905 28.4934L23.5551 28.5218C25.3458 28.5883 27.1733 27.1263 27.9638 25.6275C26.9551 24.4446 25.7028 23.4742 24.3216 22.4967L23.2619 21.7586L22.9927 22.0405L22.4176 22.6681L22.113 22.9883C21.2828 23.834 20.3138 24.5523 19.1521 24.0833L18.832 23.9488L18.441 23.7731L18.2228 23.6697L17.744 23.4303L17.2184 23.1469C15.8883 22.4067 14.6649 21.4893 13.5818 20.4198C12.5123 19.3367 11.5949 18.1133 10.8547 16.7833L10.5714 16.2591L10.3306 15.7788L10.0529 15.1697L9.91689 14.8467C9.47631 13.7572 10.0826 12.8378 10.8576 12.0417L11.1749 11.73L11.964 11.0033L12.2473 10.7341L11.5772 9.75233C10.5813 8.30733 9.60806 7.004 8.39964 6.02367L8.40106 6.02508ZM21.2403 8.55667L21.4046 8.57508C22.4358 8.75698 23.383 9.26067 24.1103 10.014C24.8377 10.7673 25.3078 11.7315 25.4535 12.7684C25.5054 13.1271 25.4179 13.492 25.209 13.7881C25 14.0843 24.6855 14.289 24.3302 14.3604C23.9749 14.4317 23.6057 14.3641 23.2987 14.1716C22.9917 13.979 22.7701 13.6761 22.6796 13.3252L22.6471 13.1623C22.5901 12.7558 22.4166 12.3746 22.1476 12.0646C21.8786 11.7546 21.5256 11.5292 21.1312 11.4155L20.9116 11.3659C20.5559 11.3029 20.2377 11.1063 20.0221 10.8164C19.8065 10.5265 19.7098 10.1652 19.7518 9.80637C19.7938 9.44755 19.9713 9.11832 20.248 8.88602C20.5247 8.65372 20.8796 8.5359 21.2403 8.55667ZM21.2502 4.25C23.5046 4.25 25.6666 5.14553 27.2606 6.73959C28.8547 8.33365 29.7502 10.4957 29.7502 12.75C29.7498 13.1111 29.6116 13.4584 29.3637 13.7209C29.1158 13.9835 28.777 14.1415 28.4166 14.1627C28.0561 14.1838 27.7012 14.0665 27.4243 13.8348C27.1474 13.603 26.9695 13.2743 26.9268 12.9158L26.9169 12.75C26.9174 11.3113 26.3704 9.92624 25.3869 8.87616C24.4034 7.82608 23.0571 7.18965 21.6214 7.09608L21.2502 7.08333C20.8745 7.08333 20.5142 6.93408 20.2485 6.6684C19.9828 6.40272 19.8336 6.04239 19.8336 5.66667C19.8336 5.29094 19.9828 4.93061 20.2485 4.66493C20.5142 4.39926 20.8745 4.25 21.2502 4.25Z" fill="black"/>
</g>
</svg>
