<svg width="54" height="47" viewBox="0 0 54 47" fill="none" xmlns="http://www.w3.org/2000/svg">
<path id="Vector" d="M20.3337 20.1664H7.00033C6.11627 20.1664 5.26842 19.8152 4.6433 19.1901C4.01818 18.565 3.66699 17.7171 3.66699 16.8331V6.83309C3.66699 5.94903 4.01818 5.10119 4.6433 4.47607C5.26842 3.85095 6.11627 3.49976 7.00033 3.49976H17.0003C17.8844 3.49976 18.7322 3.85095 19.3573 4.47607C19.9825 5.10119 20.3337 5.94903 20.3337 6.83309V26.8331C20.3337 35.7231 15.8903 41.2764 7.00033 43.4998M50.3337 20.1664H37.0003C36.1163 20.1664 35.2684 19.8152 34.6433 19.1901C34.0182 18.565 33.667 17.7171 33.667 16.8331V6.83309C33.667 5.94903 34.0182 5.10119 34.6433 4.47607C35.2684 3.85095 36.1163 3.49976 37.0003 3.49976H47.0003C47.8844 3.49976 48.7322 3.85095 49.3574 4.47607C49.9825 5.10119 50.3337 5.94903 50.3337 6.83309V26.8331C50.3337 35.7231 45.8903 41.2764 37.0003 43.4998" stroke="#EAE7E7" stroke-width="6.66667" stroke-linecap="round" stroke-linejoin="round"/>
</svg>
