<svg width="34" height="35" viewBox="0 0 34 35" fill="none" xmlns="http://www.w3.org/2000/svg">
<path fill-rule="evenodd" clip-rule="evenodd" d="M25.2408 10.1739C24.7407 9.45427 23.4034 8.44277 21.2373 8.8791C19.9736 9.13269 19.2186 9.75744 18.7383 10.5819C18.2269 11.4603 17.979 12.6545 17.979 14.0443C17.979 14.42 17.8297 14.7803 17.564 15.046C17.2984 15.3117 16.938 15.4609 16.5623 15.4609C13.2105 15.4609 10.0201 14.465 7.33556 11.7719C7.13288 12.8646 7.05305 13.9765 7.09756 15.0869C7.17265 16.6254 7.53956 18.1682 8.41081 19.4899C9.2679 20.789 10.6775 21.979 13.0348 22.727C13.2658 22.8003 13.4741 22.9316 13.6399 23.1084C13.8056 23.2852 13.9233 23.5015 13.9816 23.7367C14.0398 23.9719 14.0368 24.2182 13.9727 24.4519C13.9087 24.6856 13.7857 24.899 13.6156 25.0716C12.8606 25.8461 12.0048 26.5156 11.0713 27.062C12.573 27.2179 14.0208 27.2292 15.3638 27.1074C18.0838 26.8609 20.2499 26.0831 21.6042 24.9824C24.456 22.6704 25.9817 19.2222 25.6984 13.445C25.6502 12.4959 26.5668 11.4716 27.0088 10.6939C26.3416 10.8185 25.6729 10.7959 25.2408 10.1739ZM6.50823 7.33352C6.76472 7.30371 7.02448 7.34457 7.25943 7.45169C7.49439 7.5588 7.6956 7.7281 7.84131 7.94127C9.93231 10.9999 12.4426 12.272 15.2292 12.561C15.3652 11.3696 15.6868 10.1924 16.2917 9.15535C17.1786 7.63385 18.6207 6.51469 20.6806 6.10102C23.5281 5.52869 25.6956 6.56002 26.9521 7.82227L29.4908 7.34769C29.7565 7.29791 30.0308 7.32517 30.2815 7.42624C30.5322 7.52731 30.7487 7.69798 30.9055 7.9181C31.0623 8.13823 31.1529 8.39862 31.1666 8.66856C31.1802 8.93849 31.1164 9.20669 30.9826 9.44152L28.5459 13.7227C28.7683 19.9008 27.0513 24.2131 23.3906 27.1839C21.4498 28.7592 18.6703 29.6531 15.6202 29.9294C12.5461 30.207 9.07098 29.8713 5.61715 28.8626C5.32204 28.7765 5.06295 28.5968 4.87896 28.3505C4.69497 28.1043 4.59607 27.8049 4.59719 27.4975C4.59831 27.1901 4.69938 26.8914 4.88516 26.6465C5.07094 26.4015 5.33134 26.2237 5.62706 26.1398C7.3639 25.6454 8.68706 25.2189 9.88131 24.4724C8.18273 23.5714 6.93181 22.3927 6.0464 21.0497C4.81673 19.1825 4.36056 17.1 4.2699 15.2229C4.17923 13.3459 4.44981 11.6062 4.73598 10.3524C4.8989 9.63702 5.08873 8.92019 5.35081 8.23452C5.44326 7.99282 5.60014 7.78106 5.80443 7.62223C6.00872 7.46339 6.2512 7.36354 6.50823 7.33352Z" fill="white"/>
</svg>
