<svg width="19" height="22" viewBox="0 0 19 22" fill="none" xmlns="http://www.w3.org/2000/svg">
<path id="Vector" fill-rule="evenodd" clip-rule="evenodd" d="M15.6045 3.35645C15.202 2.54026 14.3475 2.0469 13.4394 2.10642C13.3167 2.11446 13.1769 2.14075 12.9284 2.20239L12.4825 5.94154L15.6005 5.10608C15.7176 5.0747 15.7873 5.05591 15.8393 5.04005C15.8722 5.03001 15.8862 5.02459 15.8896 5.02323C15.9786 4.97844 16.0326 4.88502 16.0268 4.78551C16.0263 4.7819 16.024 4.76708 16.0163 4.73355C16.004 4.68057 15.9854 4.61082 15.954 4.4937C15.7643 3.78575 15.6943 3.53851 15.6045 3.35645ZM10.922 6.35968L11.3684 2.61659L6.65038 3.88078L6.20395 7.62387L10.922 6.35968ZM4.64345 8.042L5.08987 4.29894C4.27276 4.51819 3.68871 4.67844 3.23914 4.84366C2.76573 5.01764 2.51179 5.17334 2.33633 5.3488C2.05705 5.62808 1.85621 5.97595 1.75399 6.35745C1.68976 6.59714 1.6819 6.89491 1.76793 7.39188C1.83049 7.75326 1.935 8.18148 2.07871 8.72922L4.64345 8.042ZM0.795714 9.74137C0.569889 8.89849 0.388109 8.215 0.28991 7.64775C0.186059 7.04784 0.161271 6.50599 0.305097 5.96922C0.475468 5.33339 0.810207 4.75361 1.27567 4.28814C1.66861 3.8952 2.15026 3.64575 2.72172 3.43573C3.27617 3.23197 3.9806 3.04322 4.85403 2.8092L5.63477 2.6C5.72226 2.55657 5.81891 2.52987 5.92006 2.52355L11.8916 0.923496C11.8988 0.921547 11.9061 0.919605 11.9133 0.917671C12.0009 0.874179 12.0977 0.847463 12.199 0.841202C12.673 0.715204 13.0199 0.6307 13.3413 0.609633C14.8548 0.510434 16.279 1.3327 16.9499 2.69302C17.1138 3.02552 17.2219 3.42928 17.3805 4.02165C17.3878 4.04918 17.3953 4.07712 17.4029 4.10548C17.407 4.1209 17.4112 4.13638 17.4154 4.15193C17.4628 4.32757 17.512 4.51036 17.5235 4.68544C17.5698 5.39173 17.1861 6.05636 16.5513 6.36942C16.3939 6.44702 16.211 6.49574 16.0352 6.54256C16.0196 6.54671 16.0041 6.55083 15.9887 6.55497L7.24297 8.89838L13.5977 8.89838C14.4962 8.89835 15.2454 8.89832 15.8402 8.97829C16.468 9.06269 17.0348 9.24836 17.4903 9.70383C17.9457 10.1593 18.1314 10.7261 18.2158 11.3539C18.2958 11.9487 18.2957 12.6979 18.2957 13.5964V14.7032C18.2957 16.0708 18.2958 17.1732 18.1792 18.0401C18.0582 18.9402 17.7993 19.6981 17.1974 20.3C16.5954 20.9019 15.8376 21.1608 14.9375 21.2819C14.0705 21.3984 12.9682 21.3984 11.6006 21.3984H7.49084C6.12325 21.3984 5.02093 21.3984 4.15396 21.2819C3.25386 21.1608 2.49598 20.9019 1.89406 20.3C1.29215 19.6981 1.03325 18.9402 0.912237 18.0401C0.795677 17.1732 0.795693 16.0708 0.795714 14.7033L0.795714 9.74137ZM2.29571 10.3984V14.6484C2.29571 16.0838 2.29731 17.0849 2.39886 17.8403C2.49751 18.574 2.67796 18.9626 2.95472 19.2394C3.23149 19.5161 3.62006 19.6966 4.35383 19.7952C5.10919 19.8968 6.1103 19.8984 7.54571 19.8984H11.5457C12.9811 19.8984 13.9822 19.8968 14.7376 19.7952C15.4714 19.6966 15.8599 19.5161 16.1367 19.2394C16.4135 18.9626 16.5939 18.574 16.6926 17.8403C16.7941 17.0849 16.7957 16.0838 16.7957 14.6484V13.6484C16.7957 12.6844 16.7941 12.0368 16.7292 11.5538C16.6671 11.0923 16.5599 10.8948 16.4296 10.7645C16.2993 10.6342 16.1018 10.527 15.6403 10.4649C15.1573 10.4 14.5097 10.3984 13.5457 10.3984H2.29571ZM10.7443 13.2288C10.7599 13.2399 10.7755 13.2511 10.7911 13.2623C10.8051 13.2723 10.8191 13.2824 10.833 13.2923C11.1939 13.551 11.5327 13.7938 11.7735 14.0304C12.0436 14.2958 12.2957 14.6537 12.2957 15.1484C12.2957 15.6431 12.0436 16.0009 11.7735 16.2664C11.5327 16.503 11.1939 16.7458 10.833 17.0044L10.7911 17.0344C10.7755 17.0456 10.7599 17.0568 10.7443 17.068C10.3825 17.3275 10.0376 17.5749 9.74247 17.7205C9.42746 17.8759 8.90933 18.0417 8.41344 17.6916C7.98284 17.3877 7.87979 16.8967 7.83858 16.5531C7.79564 16.1951 7.79568 15.7279 7.79571 15.195V15.1018C7.79568 14.5689 7.79564 14.1016 7.83858 13.7436C7.87979 13.4 7.98284 12.9091 8.41344 12.6051C8.90933 12.2551 9.42746 12.4209 9.74247 12.5763C10.0376 12.7219 10.3825 12.9693 10.7443 13.2288ZM9.31487 14.0604C9.29664 14.3101 9.29571 14.6533 9.29571 15.1484C9.29571 15.6435 9.29663 15.9867 9.31486 16.2363C9.46353 16.1394 9.65565 16.0028 9.91711 15.8154C10.335 15.5158 10.575 15.341 10.7221 15.1965C10.7414 15.1775 10.7565 15.1616 10.7683 15.1484C10.7565 15.1352 10.7414 15.1192 10.7221 15.1003C10.575 14.9557 10.335 14.781 9.91711 14.4814C9.65565 14.294 9.46354 14.1574 9.31487 14.0604Z" fill="black"/>
</svg>
