<svg width="34" height="34" viewBox="0 0 34 34" fill="none" xmlns="http://www.w3.org/2000/svg">
<g id="Group">
<path id="Vector" d="M16.9997 2.8335C24.8239 2.8335 31.1664 9.17591 31.1664 17.0002C31.1664 24.8244 24.8239 31.1668 16.9997 31.1668C14.5885 31.1704 12.2166 30.5558 10.1104 29.3818L9.67835 29.1297L5.38302 30.3933C5.14927 30.4622 4.90181 30.4702 4.66408 30.4167C4.42636 30.3631 4.20625 30.2497 4.02463 30.0873C3.84301 29.9248 3.70589 29.7186 3.62627 29.4883C3.54666 29.258 3.52718 29.0112 3.56969 28.7712L3.60652 28.6168L4.87019 24.3215C3.53421 22.1133 2.82959 19.581 2.83302 17.0002C2.83302 9.17591 9.17544 2.8335 16.9997 2.8335ZM16.9997 5.66683C14.9705 5.66646 12.9784 6.21091 11.2315 7.24332C9.48456 8.27572 8.04686 9.75822 7.06852 11.536C6.09018 13.3138 5.60709 15.3216 5.66969 17.3498C5.7323 19.3781 6.33831 21.3523 7.42444 23.0663C7.70494 23.5083 7.82535 24.0523 7.73044 24.5921L7.67519 24.823L7.05044 26.9494L9.17685 26.3247C9.79027 26.1433 10.4278 26.2538 10.9335 26.5754C12.4187 27.5158 14.1022 28.0978 15.851 28.2755C17.5998 28.4531 19.366 28.2216 21.0099 27.5991C22.6538 26.9766 24.1303 25.9802 25.3229 24.6888C26.5154 23.3974 27.3911 21.8463 27.8809 20.1581C28.3707 18.4699 28.4611 16.6909 28.145 14.9617C27.8288 13.2326 27.1147 11.6007 26.0593 10.195C25.0038 8.78938 23.6358 7.64851 22.0634 6.86261C20.4911 6.07671 18.7575 5.66733 16.9997 5.66683ZM12.8942 10.1775C13.051 10.1096 13.2229 10.0837 13.3928 10.1023C13.5627 10.1209 13.7248 10.1835 13.8632 10.2837C14.5772 10.8051 15.1439 11.5049 15.6312 12.1877L16.0944 12.8592L16.3112 13.178C16.4362 13.3609 16.4976 13.5798 16.4859 13.801C16.4741 14.0223 16.3898 14.2334 16.246 14.402L16.1398 14.5097L14.8308 15.4815C14.7678 15.5271 14.7234 15.594 14.706 15.6698C14.6885 15.7456 14.6991 15.8252 14.7359 15.8937C15.0334 16.4321 15.5589 17.2353 16.1624 17.8388C16.7674 18.4423 17.6074 19.0033 18.1826 19.3334C18.3073 19.4042 18.4574 19.3816 18.5594 19.2895L18.6133 19.2257L19.4647 17.9295C19.621 17.7213 19.8518 17.5817 20.1088 17.5399C20.3658 17.4982 20.629 17.5576 20.8431 17.7057L21.6124 18.2426C22.3774 18.788 23.1126 19.3745 23.6949 20.1182C23.8031 20.2577 23.8719 20.4238 23.8941 20.599C23.9163 20.7741 23.891 20.9521 23.8209 21.1142C23.2599 22.4232 21.839 23.5381 20.3629 23.4842L20.1376 23.4701L19.867 23.4446C19.816 23.4385 19.7649 23.4319 19.714 23.4247L19.3769 23.3681C18.0679 23.1216 15.9698 22.3792 13.7952 20.2061C11.622 18.0315 10.8797 15.9334 10.6332 14.6244L10.5765 14.2872L10.5411 13.9926L10.5227 13.7447C10.5204 13.7093 10.5186 13.6738 10.517 13.6384C10.4632 12.1594 11.5838 10.7385 12.8942 10.1775Z" fill="black"/>
</g>
</svg>
