<svg width="34" height="35" viewBox="0 0 34 35" fill="none" xmlns="http://www.w3.org/2000/svg">
<path d="M17 3.10645C24.8242 3.10645 31.1667 9.44886 31.1667 17.2731C31.1667 25.0974 24.8242 31.4398 17 31.4398C14.5888 31.4433 12.2169 30.8288 10.1107 29.6548L9.67866 29.4026L5.38333 30.6663C5.14958 30.7352 4.90211 30.7432 4.66439 30.6896C4.42666 30.6361 4.20656 30.5227 4.02494 30.3602C3.84331 30.1978 3.7062 29.9916 3.62658 29.7613C3.54696 29.531 3.52748 29.2841 3.56999 29.0442L3.60683 28.8898L4.87049 24.5944C3.53452 22.3863 2.82989 19.854 2.83333 17.2731C2.83333 9.44886 9.17574 3.10645 17 3.10645ZM17 5.93978C14.9708 5.93941 12.9787 6.48386 11.2318 7.51627C9.48486 8.54867 8.04716 10.0312 7.06882 11.8089C6.09048 13.5867 5.60739 15.5946 5.67 17.6228C5.73261 19.651 6.33862 21.6252 7.42474 23.3393C7.70524 23.7813 7.82566 24.3253 7.73074 24.865L7.67549 25.0959L7.05074 27.2224L9.17716 26.5976C9.79058 26.4163 10.4281 26.5268 10.9338 26.8484C12.419 27.7887 14.1025 28.3707 15.8513 28.5484C17.6001 28.7261 19.3663 28.4945 21.0102 27.872C22.6541 27.2495 24.1306 26.2532 25.3232 24.9618C26.5157 23.6703 27.3914 22.1192 27.8812 20.431C28.371 18.7428 28.4614 16.9638 28.1453 15.2347C27.8291 13.5055 27.115 11.8736 26.0596 10.468C25.0041 9.06233 23.6361 7.92146 22.0638 7.13556C20.4914 6.34966 18.7578 5.94028 17 5.93978ZM12.8945 10.4504C13.0513 10.3825 13.2232 10.3566 13.3931 10.3752C13.563 10.3939 13.7251 10.4564 13.8635 10.5567C14.5775 11.078 15.1442 11.7779 15.6315 12.4607L16.0947 13.1322L16.3115 13.4509C16.4366 13.6338 16.4979 13.8528 16.4862 14.074C16.4744 14.2952 16.3901 14.5064 16.2463 14.6749L16.1401 14.7826L14.8311 15.7544C14.7681 15.8001 14.7237 15.867 14.7063 15.9428C14.6888 16.0186 14.6994 16.0981 14.7362 16.1667C15.0337 16.705 15.5592 17.5083 16.1627 18.1118C16.7677 18.7153 17.6077 19.2763 18.1829 19.6064C18.3076 19.6772 18.4577 19.6545 18.5597 19.5624L18.6136 19.4987L19.465 18.2024C19.6213 17.9942 19.8521 17.8546 20.1091 17.8129C20.3661 17.7711 20.6293 17.8305 20.8434 17.9786L21.6127 18.5155C22.3777 19.0609 23.1129 19.6474 23.6952 20.3912C23.8034 20.5307 23.8723 20.6967 23.8944 20.8719C23.9166 21.0471 23.8913 21.225 23.8212 21.3871C23.2602 22.6961 21.8393 23.811 20.3632 23.7572L20.1379 23.743L19.8673 23.7175C19.8163 23.7115 19.7653 23.7049 19.7143 23.6977L19.3772 23.641C18.0682 23.3945 15.9701 22.6522 13.7955 20.479C11.6223 18.3044 10.88 16.2064 10.6335 14.8974L10.5768 14.5602L10.5414 14.2655L10.523 14.0176C10.5207 13.9822 10.5189 13.9468 10.5173 13.9114C10.4635 12.4324 11.5841 11.0114 12.8945 10.4504Z" fill="white"/>
</svg>
