<svg width="34" height="35" viewBox="0 0 34 35" fill="none" xmlns="http://www.w3.org/2000/svg">
<path d="M17 5.93945C18.2112 5.93945 19.4536 5.97062 20.6578 6.02162L22.0801 6.08962L23.4416 6.17037L24.7166 6.25679L25.8811 6.34745C27.1448 6.44418 28.3339 6.98346 29.2393 7.87043C30.1447 8.75739 30.7083 9.93522 30.8309 11.1967L30.8876 11.7988L30.9938 13.088C31.093 14.4239 31.1666 15.8802 31.1666 17.2728C31.1666 18.6654 31.093 20.1217 30.9938 21.4576L30.8876 22.7468C30.8691 22.9536 30.8507 23.1534 30.8309 23.3489C30.7082 24.6106 30.1444 25.7886 29.2388 26.6756C28.3331 27.5626 27.1436 28.1017 25.8796 28.1981L24.718 28.2874L23.443 28.3752L22.0801 28.456L20.6578 28.524C19.4392 28.5769 18.2197 28.6043 17 28.6061C15.7803 28.6043 14.5607 28.5769 13.3421 28.524L11.9198 28.456L10.5584 28.3752L9.2834 28.2874L8.1189 28.1981C6.85516 28.1014 5.66601 27.5621 4.76065 26.6751C3.85529 25.7882 3.29171 24.6104 3.16906 23.3489L3.1124 22.7468L3.00615 21.4576C2.89782 20.0652 2.84018 18.6694 2.83331 17.2728C2.83331 15.8802 2.90698 14.4239 3.00615 13.088L3.1124 11.7988C3.13081 11.592 3.14923 11.3922 3.16906 11.1967C3.29166 9.93544 3.85504 8.75779 4.76011 7.87086C5.66518 6.98392 6.854 6.4445 8.11748 6.34745L9.28056 6.25679L10.5556 6.17037L11.9184 6.08962L13.3407 6.02162C14.5598 5.96868 15.7798 5.94129 17 5.93945ZM17 8.77279C15.8312 8.77279 14.6285 8.80395 13.4583 8.85212L12.0728 8.9187L10.7426 8.99662L9.49306 9.08162L8.3484 9.17087C7.74678 9.21356 7.17971 9.46787 6.74769 9.88873C6.31568 10.3096 6.04663 10.8698 5.98823 11.4701C5.82248 13.1829 5.66665 15.315 5.66665 17.2728C5.66665 19.2306 5.82248 21.3627 5.98823 23.0755C6.10865 24.3108 7.08898 25.2713 8.3484 25.3747L9.49306 25.4625L10.7426 25.5475L12.0728 25.6269L13.4583 25.6935C14.6285 25.7416 15.8312 25.7728 17 25.7728C18.1687 25.7728 19.3715 25.7416 20.5416 25.6935L21.9271 25.6269L23.2574 25.549L24.5069 25.464L25.6516 25.3747C26.2532 25.332 26.8203 25.0777 27.2523 24.6568C27.6843 24.236 27.9533 23.6757 28.0117 23.0755C28.1775 21.3627 28.3333 19.2306 28.3333 17.2728C28.3333 15.315 28.1775 13.1829 28.0117 11.4701C27.9533 10.8698 27.6843 10.3096 27.2523 9.88873C26.8203 9.46787 26.2532 9.21356 25.6516 9.17087L24.5069 9.08304L23.2574 8.99804L21.9271 8.9187L20.5416 8.85212C19.3618 8.80136 18.181 8.77491 17 8.77279ZM14.1666 13.8374C14.1666 13.6989 14.2003 13.5625 14.2649 13.4401C14.3295 13.3176 14.4231 13.2128 14.5375 13.1348C14.6518 13.0567 14.7835 13.0078 14.9211 12.9922C15.0587 12.9766 15.198 12.9949 15.3269 13.0455L15.4416 13.1021L21.3916 16.5361C21.5101 16.6045 21.6104 16.7004 21.6838 16.8158C21.7573 16.9312 21.8018 17.0626 21.8137 17.1989C21.8255 17.3352 21.8042 17.4723 21.7517 17.5986C21.6992 17.7249 21.617 17.8367 21.5121 17.9245L21.3916 18.0095L15.4416 21.4449C15.3217 21.5143 15.1867 21.5534 15.0482 21.5587C14.9098 21.564 14.7721 21.5354 14.6473 21.4753C14.5224 21.4152 14.4141 21.3256 14.3318 21.2141C14.2495 21.1026 14.1958 20.9727 14.1751 20.8357L14.1666 20.7082V13.8374Z" fill="white"/>
</svg>
